<svg width="41" height="40" viewBox="0 0 41 40" fill="none" xmlns="http://www.w3.org/2000/svg">
<path d="M20.5013 0.800049C9.89727 0.800049 1.30127 9.39605 1.30127 20C1.30127 30.604 9.89727 39.2 20.5013 39.2C31.1053 39.2 39.7013 30.604 39.7013 20C39.7013 9.39605 31.1053 0.800049 20.5013 0.800049ZM15.8013 27.958H11.9133V15.446H15.8013V27.958ZM13.8333 13.91C12.6053 13.91 11.8113 13.04 11.8113 11.964C11.8113 10.866 12.6293 10.022 13.8833 10.022C15.1373 10.022 15.9053 10.866 15.9293 11.964C15.9293 13.04 15.1373 13.91 13.8333 13.91ZM30.0013 27.958H26.1133V21.024C26.1133 19.41 25.5493 18.314 24.1433 18.314C23.0693 18.314 22.4313 19.056 22.1493 19.77C22.0453 20.024 22.0193 20.384 22.0193 20.742V27.956H18.1293V19.436C18.1293 17.874 18.0793 16.568 18.0273 15.444H21.4053L21.5833 17.182H21.6613C22.1733 16.366 23.4273 15.162 25.5253 15.162C28.0833 15.162 30.0013 16.876 30.0013 20.56V27.958Z" fill="#000249"/>
</svg>
