<svg width="41" height="40" viewBox="0 0 41 40" fill="none" xmlns="http://www.w3.org/2000/svg">
<path fill-rule="evenodd" clip-rule="evenodd" d="M20.5 40C31.5457 40 40.5 31.0457 40.5 20C40.5 8.9543 31.5457 0 20.5 0C9.4543 0 0.5 8.9543 0.5 20C0.5 31.0457 9.4543 40 20.5 40ZM29.5 28.993V17H23.5C23.2348 17 22.9804 16.8946 22.7929 16.7071C22.6054 16.5196 22.5 16.2652 22.5 16V10H12.498C11.947 10 11.5 10.455 11.5 10.992V29.008C11.5003 29.2712 11.605 29.5235 11.7912 29.7095C11.9774 29.8955 12.2298 30 12.493 30H28.507C28.6383 29.9991 28.7682 29.9723 28.8892 29.9212C29.0101 29.8701 29.1199 29.7957 29.2121 29.7022C29.3043 29.6087 29.3772 29.4979 29.4266 29.3762C29.476 29.2545 29.5009 29.1243 29.5 28.993ZM24.5 15H29.5L24.5 10.003V15ZM16.5 17V15H19.5V17H16.5ZM16.5 25V23H24.5V25H16.5ZM16.5 21V19H24.5V21H16.5Z" fill="#000249"/>
</svg>
