<svg width="41" height="40" viewBox="0 0 41 40" fill="none" xmlns="http://www.w3.org/2000/svg">
<path d="M20.5005 2.5C10.8364 2.5 3.00049 10.3359 3.00049 20C3.00049 29.6641 10.8364 37.5 20.5005 37.5C30.1646 37.5 38.0005 29.6641 38.0005 20C38.0005 10.3359 30.1646 2.5 20.5005 2.5ZM28.9106 15.6914C28.9224 15.875 28.9224 16.0664 28.9224 16.2539C28.9224 21.9883 24.5552 28.5937 16.5747 28.5937C14.1138 28.5937 11.8325 27.8789 9.91064 26.6484C10.2622 26.6875 10.5981 26.7031 10.9575 26.7031C12.9888 26.7031 14.856 26.0156 16.3442 24.8516C14.438 24.8125 12.8364 23.5625 12.2896 21.8437C12.9575 21.9414 13.5591 21.9414 14.2466 21.7656C13.265 21.5662 12.3828 21.0331 11.7498 20.257C11.1167 19.4808 10.7719 18.5094 10.7739 17.5078V17.4531C11.3481 17.7773 12.0239 17.9766 12.731 18.0039C12.1366 17.6078 11.6492 17.0711 11.3119 16.4415C10.9746 15.8119 10.7978 15.1088 10.7974 14.3945C10.7974 13.5859 11.0083 12.8477 11.3872 12.207C12.4767 13.5482 13.8362 14.6451 15.3773 15.4264C16.9185 16.2078 18.6068 16.6561 20.3325 16.7422C19.7192 13.793 21.9224 11.4062 24.5708 11.4062C25.8208 11.4062 26.9458 11.9297 27.7388 12.7734C28.7192 12.5898 29.6567 12.2227 30.4927 11.7305C30.1685 12.7344 29.4888 13.582 28.5864 14.1172C29.4614 14.0234 30.3052 13.7812 31.0864 13.4414C30.4966 14.3086 29.7583 15.0781 28.9106 15.6914V15.6914Z" fill="#000249"/>
<path d="M39.251 20C39.251 30.3553 30.8563 38.75 20.501 38.75C10.1456 38.75 1.75098 30.3553 1.75098 20C1.75098 9.64466 10.1456 1.25 20.501 1.25C30.8563 1.25 39.251 9.64466 39.251 20ZM6.29006 20C6.29006 27.8485 12.6525 34.2109 20.501 34.2109C28.3495 34.2109 34.7119 27.8485 34.7119 20C34.7119 12.1515 28.3495 5.78908 20.501 5.78908C12.6525 5.78908 6.29006 12.1515 6.29006 20Z" fill="#000249"/>
</svg>
